<svg xmlns="http://www.w3.org/2000/svg" viewBox="0 0 512 512" id="man">
  <path fill="#ffffff" d="M395.78,268.48H116.22A36.57,36.57,0,0,1,79.69,232v-51.9a36.57,36.57,0,0,1,36.53-36.53H395.78a36.57,36.57,0,0,1,36.53,36.53V232A36.57,36.57,0,0,1,395.78,268.48Zm-279.56-95a6.62,6.62,0,0,0-6.53,6.53V232a6.62,6.62,0,0,0,6.53,6.53H395.78a6.62,6.62,0,0,0,6.53-6.53v-51.9a6.62,6.62,0,0,0-6.53-6.53Z"></path>
  <path fill="#ffffff" d="M256 512c-79.63 0-144.41-64.78-144.41-144.41V258.89a15 15 0 0130 0v108.7a114.41 114.41 0 00228.82 0V260.75a15 15 0 0130 0V367.59C400.41 447.22 335.63 512 256 512zM390.62 172.23a15 15 0 01-12.56-6.78L307.49 57.81a61.57 61.57 0 00-103 0L134 165.38a15 15 0 11-25.09-16.45L179.43 41.36a91.56 91.56 0 01153.14 0L403.15 149a15 15 0 01-12.53 23.23z"></path>
  <path fill="#ffffff" d="M366.85 131.15a15 15 0 01-3-29.71A27 27 0 10336.6 59.1a15 15 0 11-24.27-17.63 57 57 0 1157.51 89.38A15.24 15.24 0 01366.85 131.15zM256 424.13a48.15 48.15 0 01-32.64-12.75 15 15 0 1120.3-22.09 18.15 18.15 0 0024.68 0 15 15 0 1120.3 22.09A48.15 48.15 0 01256 424.13zM211.32 348a15 15 0 01-10.15-4 6 6 0 00-8.18 0A15 15 0 11172.69 322a36 36 0 0148.78 0 15 15 0 01-10.15 26zM329.16 348a14.93 14.93 0 01-10.15-4 6 6 0 00-8.18 0A15 15 0 11290.53 322a36 36 0 0148.78 0 15 15 0 01-10.15 26zM411.1 349.26H390.61a15 15 0 010-30H411.1a25.39 25.39 0 000-50.78H390.61a15 15 0 110-30H411.1a55.39 55.39 0 010 110.78zM121.08 349.26H100.9a55.39 55.39 0 010-110.78h21a15 15 0 010 30h-21a25.39 25.39 0 000 50.78h20.18a15 15 0 110 30z"></path>
</svg>
